<svg xmlns="http://www.w3.org/2000/svg" width="38.152" height="38.152" viewBox="0 0 38.152 38.152"><defs><style>.a{fill:#404efb;}.b{fill:#fff;}</style></defs><circle class="a" cx="19.076" cy="19.076" r="19.076" transform="translate(0 0)"/><g transform="translate(11.406 10.898)"><path class="b" d="M.558,17.2a.478.478,0,0,1-.337-.139.475.475,0,0,1-.181-.591l1.64-4.139a1.894,1.894,0,0,1,.429-.649l7.7-7.7a.476.476,0,0,1,.155-.1.476.476,0,0,1,.367,0,.474.474,0,0,1,.155.1l2.728,2.689a.477.477,0,0,1,0,.668L5.524,15.061a1.937,1.937,0,0,1-.649.429L.736,17.168A.471.471,0,0,1,.558,17.2ZM14.685,5.692a.465.465,0,0,1-.184-.037.474.474,0,0,1-.155-.1l-2.68-2.719a.477.477,0,0,1,0-.668L13.392.42a1.448,1.448,0,0,1,.473-.314A1.418,1.418,0,0,1,14.4,0h.744a1.421,1.421,0,0,1,1.01.42l.63.629a1.428,1.428,0,0,1,.42,1.011v.725a1.432,1.432,0,0,1-.42,1.03L15.023,5.552a.469.469,0,0,1-.155.1A.464.464,0,0,1,14.685,5.692Z" transform="translate(0 0)"/></g></svg>